<svg xmlns="http://www.w3.org/2000/svg" xmlns:svgjs="http://svgjs.com/svgjs" xmlns:xlink="http://www.w3.org/1999/xlink" width="288" height="288"><svg xmlns="http://www.w3.org/2000/svg" width="288" height="288" data-name="24x24/On Light/Notification" viewBox="0 0 24 24"><rect width="24" height="24" fill="none"/><path fill="#fff" d="M6,17v-.5H2.25A2.253,2.253,0,0,1,0,14.25v-.382a2.542,2.542,0,0,1,1.415-2.289A1.248,1.248,0,0,0,2.1,10.572l.446-4.91a6.225,6.225,0,0,1,12.4,0l.446,4.91a1.26,1.26,0,0,0,.686,1.005,2.547,2.547,0,0,1,1.418,2.29v.382a2.252,2.252,0,0,1-2.25,2.25H11.5V17A2.75,2.75,0,0,1,6,17Zm1.5,0A1.25,1.25,0,0,0,10,17v-.5H7.5ZM4.045,5.8,3.6,10.708A2.738,2.738,0,0,1,2.089,12.92a1.055,1.055,0,0,0-.589.949v.382A.751.751,0,0,0,2.25,15h13A.751.751,0,0,0,16,14.25v-.382a1.054,1.054,0,0,0-.586-.948A2.739,2.739,0,0,1,13.9,10.708L13.456,5.8a4.725,4.725,0,0,0-9.411,0Z" class="color141124 svgShape" transform="translate(3.25 2.25)"/></svg></svg>